# xmcd
#
# Track frame offsets:
# 150
# 14425
# 25513
# 40527
# 50996
# 62980
# 75247
# 83041
# 97189
# 110951
# 120873
#
# Disc length: 1774 seconds
#
# Revision: 1
# Processed by: cddbd v1.5.2PL0 Copyright (c) Steve Scherf et al.
# Submitted via: CdCzar 6.7b
#
DISCID=8406ec0b
DTITLE=Gehan Gunasekera - Believe In Me
DYEAR=2010
DGENRE=country
TTITLE0=You Don't Know Me
TTITLE1=Anita You're Dreaming
TTITLE2=Blue Side Of Lonesome
TTITLE3=Do You Mind
TTITLE4=A Fallen Star
TTITLE5=Dream Lover
TTITLE6=You Are My Darling
TTITLE7=She Wears My Ring
TTITLE8=Visions
TTITLE9=Believe In Me
TTITLE10=Wind Me Up
EXTD=
EXTT0=
EXTT1=
EXTT2=
EXTT3=
EXTT4=
EXTT5=
EXTT6=
EXTT7=
EXTT8=
EXTT9=
EXTT10=
PLAYORDER=
